<?xml version="1.0" encoding="utf-8"?>
<!-- Generator: Adobe Illustrator 16.0.4, SVG Export Plug-In . SVG Version: 6.00 Build 0)  -->
<!DOCTYPE svg PUBLIC "-//W3C//DTD SVG 1.1//EN" "http://www.w3.org/Graphics/SVG/1.1/DTD/svg11.dtd">
<svg version="1.1" id="Layer_1" xmlns="http://www.w3.org/2000/svg" xmlns:xlink="http://www.w3.org/1999/xlink" x="0px" y="0px"
	 width="30px" height="30px" viewBox="0 0 30 30" enable-background="new 0 0 30 30" xml:space="preserve">
<g id="Spanner_1_">
	<defs>
		<rect id="SVGID_1_" width="30" height="30"/>
	</defs>
	<clipPath id="SVGID_2_">
		<use xlink:href="#SVGID_1_"  overflow="visible"/>
	</clipPath>
	<path clip-path="url(#SVGID_2_)" fill="#939292" d="M29.959,6.354c-0.031-0.127-0.094-0.246-0.192-0.346
		c-0.145-0.145-0.335-0.217-0.524-0.217s-0.38,0.072-0.524,0.217c-0.099,0.1-3.149,3.15-3.149,3.15
		c-0.23,0.23-0.555,0.34-0.932,0.34c-0.806,0-1.853-0.501-2.742-1.391c-1.305-1.305-1.774-2.949-1.049-3.674
		c0,0,3.05-3.051,3.148-3.15c0.29-0.289,0.29-0.76,0-1.049c-0.099-0.1-0.219-0.162-0.345-0.193C23.354,0.014,23.059,0,22.763,0
		c-2.299,0-4.601,0.818-6.128,2.346c-1.379,1.379-1.658,3.256-1.658,4.756l0,0c0,1.5-0.553,3.646-2.114,5.274l0.004,0.005
		L0.984,24.264c-1.312,1.312-1.312,3.439,0,4.752C1.641,29.672,2.501,30,3.361,30c0.859,0,1.72-0.328,2.376-0.984l11.882-11.883
		l0.005,0.006c1.457-1.396,3.217-2.146,4.744-2.146C22.549,14.992,22.96,15,23.9,15c1.337,0,2.626-0.5,3.755-1.631
		C29.379,11.646,30.199,8.934,29.959,6.354z M15.195,7.535C15.182,7.48,15.17,7.426,15.157,7.37
		C15.17,7.426,15.182,7.48,15.195,7.535z M15.337,8.02C15.324,7.982,15.312,7.947,15.3,7.91C15.312,7.947,15.324,7.982,15.337,8.02z
		 M17.643,16.053l-0.038-0.035l-0.551,0.551L5.172,28.449c-0.483,0.484-1.127,0.75-1.811,0.75c-0.685,0-1.327-0.266-1.812-0.75
		c-0.483-0.482-0.75-1.126-0.75-1.811c0-0.684,0.267-1.326,0.75-1.811l11.882-11.881l0.532-0.542l-0.029-0.032
		c0.895-1.088,1.489-2.303,1.738-3.5c0.511,1.1,1.292,2.178,2.286,3.172c1.074,1.074,3.257,2.328,3.166,2.285
		C19.927,14.58,18.721,15.17,17.643,16.053z M27.09,12.805C26.164,13.73,25.091,14.2,23.9,14.2c-1.713,0-3.622-0.966-5.375-2.721
		c-2.391-2.392-3.994-5.897-1.324-8.568c1.321-1.321,3.4-2.11,5.562-2.11c0.188,0,0.378,0.006,0.565,0.018L20.28,3.867
		c-0.558,0.557-0.718,1.434-0.44,2.406c0.234,0.822,0.764,1.675,1.489,2.4c1.018,1.018,2.254,1.625,3.308,1.625
		c0.604,0,1.122-0.199,1.498-0.575c0,0,2.504-2.505,3.048-3.049C29.334,9.021,28.543,11.35,27.09,12.805z"/>
	<circle clip-path="url(#SVGID_2_)" fill="#939292" cx="3.477" cy="26.602" r="1"/>
</g>
</svg>
